<svg width="63" height="63" viewBox="0 0 63 63" fill="none" xmlns="http://www.w3.org/2000/svg">
<path d="M16.5651 33.4687L53.1563 33.4687C53.6784 33.4687 54.1792 33.2613 54.5484 32.8921C54.9176 32.5229 55.125 32.0221 55.125 31.5C55.125 30.9778 54.9176 30.4771 54.5484 30.1079C54.1792 29.7387 53.6784 29.5312 53.1563 29.5312L16.5651 29.5312L30.9251 15.1751C31.2948 14.8054 31.5025 14.304 31.5025 13.7812C31.5025 13.2584 31.2948 12.757 30.9251 12.3874C30.5555 12.0177 30.0541 11.81 29.5313 11.81C29.0084 11.81 28.5071 12.0177 28.1374 12.3874L10.4186 30.1061C10.2353 30.289 10.0898 30.5062 9.99057 30.7454C9.89132 30.9846 9.84023 31.241 9.84023 31.5C9.84023 31.7589 9.89132 32.0154 9.99057 32.2545C10.0898 32.4937 10.2353 32.711 10.4186 32.8939L28.1374 50.6126C28.5071 50.9823 29.0084 51.19 29.5312 51.19C30.0541 51.19 30.5554 50.9823 30.9251 50.6126C31.2948 50.2429 31.5025 49.7415 31.5025 49.2187C31.5025 48.6959 31.2948 48.1945 30.9251 47.8249L16.5651 33.4687Z" fill="black"/>
</svg>
