<svg width="63" height="63" viewBox="0 0 63 63" fill="none" xmlns="http://www.w3.org/2000/svg">
<path d="M46.4349 29.5312H9.84375C9.32161 29.5312 8.82085 29.7387 8.45163 30.1079C8.08242 30.4771 7.875 30.9778 7.875 31.5C7.875 32.0221 8.08242 32.5229 8.45163 32.8921C8.82085 33.2613 9.32161 33.4687 9.84375 33.4687H46.4349L32.0749 47.8249C31.7052 48.1945 31.4975 48.6959 31.4975 49.2187C31.4975 49.7415 31.7052 50.2429 32.0749 50.6126C32.4446 50.9823 32.9459 51.19 33.4688 51.19C33.9916 51.19 34.4929 50.9823 34.8626 50.6126L52.5814 32.8939C52.7647 32.711 52.9102 32.4937 53.0094 32.2545C53.1087 32.0154 53.1598 31.7589 53.1598 31.5C53.1598 31.241 53.1087 30.9846 53.0094 30.7454C52.9102 30.5062 52.7647 30.289 52.5814 30.1061L34.8626 12.3874C34.4929 12.0177 33.9916 11.81 33.4688 11.81C32.9459 11.81 32.4446 12.0177 32.0749 12.3874C31.7052 12.757 31.4975 13.2584 31.4975 13.7812C31.4975 14.304 31.7052 14.8054 32.0749 15.1751L46.4349 29.5312Z" fill="black"/>
</svg>
